<?xml version="1.0" standalone="no"?>
<!DOCTYPE svg PUBLIC "-//W3C//DTD SVG 20010904//EN"
 "http://www.w3.org/TR/2001/REC-SVG-20010904/DTD/svg10.dtd">
<svg version="1.0" xmlns="http://www.w3.org/2000/svg"
 width="1280.000000pt" height="1280.000000pt" viewBox="0 0 1280.000000 1280.000000"
 preserveAspectRatio="xMidYMid meet">

<g transform="translate(0.000000,1280.000000) scale(0.100000,-0.100000)"
fill="#000000" stroke="none">
<path d="M5900 9415 c-267 -79 -495 -147 -508 -150 -12 -3 -31 -14 -42 -25
-19 -19 -20 -35 -20 -475 0 -430 1 -456 19 -474 18 -18 72 -30 361 -80 314
-55 426 -65 690 -65 280 0 381 10 775 80 247 43 272 50 285 74 6 12 10 184 10
474 0 485 1 475 -48 490 -272 81 -1021 296 -1027 295 -6 0 -228 -65 -495 -144z
m695 -268 c201 -96 305 -318 250 -532 -21 -81 -68 -156 -137 -220 -139 -129
-334 -159 -506 -78 -67 31 -179 138 -211 200 -115 226 -24 510 197 622 86 43
122 51 234 47 87 -3 104 -6 173 -39z"/>
<path d="M6309 9077 c-177 -50 -292 -228 -260 -403 22 -116 82 -201 183 -254
53 -28 76 -35 143 -38 95 -5 141 6 215 50 233 140 214 496 -34 618 -74 37
-174 47 -247 27z m131 -87 c17 -17 20 -33 20 -110 l0 -90 90 0 c77 0 93 -3
110 -20 25 -25 25 -41 -1 -74 -19 -25 -25 -26 -109 -26 l-89 0 -3 -91 c-3 -87
-4 -93 -30 -112 l-28 -21 -27 21 c-27 19 -28 25 -31 112 l-3 91 -89 0 c-84 0
-90 1 -109 26 -26 33 -26 49 -1 74 17 17 33 20 110 20 l90 0 0 90 c0 77 3 93
20 110 11 11 29 20 40 20 11 0 29 -9 40 -20z"/>
<path d="M5370 8158 c0 -86 34 -240 81 -370 51 -142 52 -148 14 -161 -16 -5
-43 -21 -59 -36 -52 -47 -56 -71 -56 -303 0 -184 3 -218 19 -253 22 -49 36
-61 97 -84 47 -18 48 -19 66 -87 39 -145 138 -316 256 -446 l52 -56 -2 -262
-3 -262 -230 -58 c-771 -195 -1323 -466 -1550 -760 -142 -185 -286 -630 -326
-1007 -9 -86 -9 -124 0 -159 21 -84 82 -156 156 -184 32 -12 37 -13 880 -155
314 -53 810 -136 1102 -186 l533 -90 777 131 c428 72 981 165 1228 206 511 86
545 96 610 181 57 75 70 136 56 268 -36 341 -174 783 -300 962 -220 313 -789
597 -1596 798 l-210 53 -3 259 -2 260 61 64 c117 124 216 297 256 451 17 65
18 67 58 77 44 11 88 50 104 94 7 17 11 117 11 248 0 199 -2 223 -20 258 -20
40 -73 81 -105 81 -10 0 -15 5 -12 13 81 197 125 355 134 487 l6 86 -156 -31
-156 -30 20 -30 c53 -80 62 -114 61 -244 0 -69 -4 -151 -7 -184 -7 -54 -9 -58
-29 -51 -11 4 -131 9 -267 11 -194 4 -264 1 -337 -11 -51 -9 -133 -16 -182
-16 -49 0 -131 7 -182 16 -73 12 -143 15 -337 11 -136 -2 -256 -8 -268 -12
l-23 -7 0 160 c0 176 8 213 70 313 l28 46 -86 13 c-48 7 -120 21 -159 30 l-73
17 0 -59z m824 -549 c21 -6 50 -22 64 -36 23 -23 24 -30 20 -101 -5 -95 -38
-172 -98 -232 -67 -67 -105 -80 -245 -80 -119 0 -122 1 -175 33 -42 25 -61 44
-82 86 -25 48 -28 63 -28 158 0 115 6 135 53 163 29 18 52 20 242 20 119 0
227 -5 249 -11z m896 -4 c52 -27 60 -49 60 -166 0 -97 -2 -111 -28 -160 -21
-42 -40 -61 -82 -86 -53 -32 -56 -33 -175 -33 -140 0 -178 13 -245 80 -59 59
-93 137 -98 230 -8 135 22 149 326 150 170 0 219 -3 242 -15z m-1537 -84 c22
-9 25 -18 34 -101 25 -218 137 -309 367 -298 154 8 242 50 306 146 35 52 70
157 70 208 l0 34 70 0 70 0 0 -34 c0 -51 35 -156 70 -208 64 -96 152 -138 306
-146 232 -11 343 81 367 302 l10 95 44 7 c34 5 48 3 63 -11 19 -17 20 -32 20
-227 0 -198 -1 -209 -21 -229 -14 -14 -28 -19 -42 -15 -75 22 -74 23 -81 -36
-24 -181 -144 -409 -287 -543 -395 -371 -971 -244 -1227 270 -41 81 -71 174
-92 277 l-11 58 -36 -15 c-47 -20 -59 -19 -83 5 -19 19 -20 33 -20 223 0 167
3 206 16 225 16 23 47 28 87 13z m649 -1347 c54 -14 108 -19 208 -19 156 1
218 15 350 79 47 22 88 42 93 44 4 2 7 -115 7 -261 l0 -264 63 -12 c153 -30
480 -119 682 -186 483 -160 793 -323 992 -522 83 -82 97 -102 147 -205 109
-228 192 -507 223 -754 16 -124 16 -133 -1 -178 -23 -60 -58 -102 -108 -127
-28 -14 -205 -48 -601 -115 -309 -51 -853 -143 -1209 -203 l-647 -109 -558 94
c-307 52 -853 144 -1213 204 -736 124 -715 118 -775 215 -27 44 -30 55 -28
129 3 175 77 473 177 724 71 174 105 229 202 327 212 215 646 427 1194 585
155 45 386 103 478 121 l62 12 0 267 0 267 94 -47 c52 -26 128 -56 168 -66z"/>
<path d="M5380 5564 c-185 -48 -526 -178 -705 -268 -210 -107 -376 -232 -459
-345 -133 -180 -271 -612 -293 -912 -5 -77 -3 -92 16 -133 39 -79 45 -81 509
-156 1261 -206 1917 -310 1955 -310 23 0 96 9 162 20 255 42 1321 213 1740
280 487 78 512 85 553 155 21 37 23 48 18 145 -13 259 -146 699 -267 879 -142
213 -469 406 -979 579 -216 73 -273 81 -327 47 -17 -11 -206 -188 -419 -393
-300 -288 -398 -375 -426 -384 -77 -23 -83 -18 -506 389 -217 208 -408 385
-425 394 -48 25 -86 28 -147 13z m16 -778 c18 -14 19 -31 22 -332 2 -210 -1
-326 -8 -343 -8 -20 -57 -52 -195 -129 l-184 -102 -173 96 c-95 53 -181 103
-190 112 -17 14 -18 43 -18 345 0 293 2 332 17 349 15 17 40 18 363 18 283 0
350 -3 366 -14z"/>
<path d="M4990 4571 c-5 -11 -10 -53 -10 -93 l0 -74 -40 4 c-71 7 -130 -7
-142 -32 -7 -17 -7 -30 1 -45 11 -19 20 -21 96 -21 l85 0 0 -76 c0 -90 10
-114 48 -114 44 0 52 16 52 107 l0 83 83 0 c88 0 107 8 107 46 0 36 -27 49
-109 51 l-76 2 -3 77 c-2 43 -8 84 -14 91 -16 20 -66 16 -78 -6z"/>
</g>
</svg>
